<svg xmlns="http://www.w3.org/2000/svg" xmlns:xlink="http://www.w3.org/1999/xlink" width="32" height="20" viewBox="0 0 32 20"><defs><path id="fehqa" d="M323.62 2571.68h-25.776l6.15-6.18a1.39 1.39 0 0 0 0-1.96 1.375 1.375 0 0 0-1.95 0l-8.505 8.546a1.39 1.39 0 0 0 0 1.96l8.505 8.547a1.373 1.373 0 0 0 1.95 0 1.39 1.39 0 0 0 0-1.96l-6.15-6.18h25.776c.762 0 1.38-.62 1.38-1.387 0-.765-.618-1.386-1.38-1.386z"/></defs><g><g transform="translate(-293 -2563)"><use fill="gray" xlink:href="#fehqa"/></g></g></svg>